Coordinates
version=1
nRows=12
nColumns=24
inDegrees=yes

Units are S.I. units (second, meters, Newtons, ...)
Angles are in degrees.

endheader
time	pelvis_tilt	pelvis_list	pelvis_rotation	pelvis_tx	pelvis_ty	pelvis_tz	hip_flexion_r	hip_adduction_r	hip_rotation_r	knee_angle_r	ankle_angle_r	subtalar_angle_r	mtp_angle_r	hip_flexion_l	hip_adduction_l	hip_rotation_l	knee_angle_l	ankle_angle_l	subtalar_angle_l	mtp_angle_l	lumbar_extension	lumbar_bending	lumbar_rotation
      2.10500000	     -8.33263403	     -2.24824681	      1.75961243	      0.70446747	      1.26849545	     -0.89297603	     -2.99258460	      5.05050949	     -6.11452196	    -31.91169925	    -15.88399298	     11.90273852	     16.22176532	     26.79940118	      6.30219048	     12.47003523	    -14.26494966	     -7.31601976	    -18.21956010	      4.93444666	      3.40377891	      0.98570620	     -0.87502375
      2.11000000	     -8.32663868	     -2.17584459	      1.97018252	      0.70961990	      1.26931471	     -0.89358057	     -2.04511153	      4.64949901	     -6.88317251	    -33.60437184	    -16.89261480	     11.53046471	     15.27778260	     26.36711555	      6.44951929	     12.61885378	    -14.19849336	     -7.01281493	    -17.96232116	      4.79488327	      3.26727090	      0.83194315	     -1.05976392
      2.11500000	     -8.29317716	     -2.11969332	      2.21723928	      0.71459010	      1.27012028	     -0.89424781	     -1.10500896	      4.25052620	     -7.65469680	    -35.27710621	    -17.67179646	     11.04954640	     15.09322275	     25.90687965	      6.59813879	     12.81759907	    -14.10434173	     -6.79231997	    -17.72458425	      4.78901106	      3.07653740	      0.69709769	     -1.28415514
      2.12000000	     -8.32700412	     -2.15223310	      2.44166442	      0.71938156	      1.27081119	     -0.89491656	     -0.05874822	      3.97225314	     -8.28025191	    -36.92669697	    -18.40339353	     10.35258156	     14.22075230	     25.59218728	      6.66052716	     12.95574143	    -14.13138157	     -6.32310508	    -17.36953020	      4.65869679	      2.94050059	      0.67784999	     -1.50000767
      2.12500000	     -8.33034260	     -2.15302652	      2.68205051	      0.72407398	      1.27152039	     -0.89559872	      0.96509779	      3.64874063	     -8.88475502	    -38.55506050	    -18.89976976	      9.77424076	     13.13954212	     25.17506128	      6.74782979	     13.15093807	    -14.00540201	     -6.04301443	    -17.00412788	      4.40247665	      2.75797919	      0.62493338	     -1.76031542
      2.13000000	     -8.32302442	     -2.20553908	      2.97382227	      0.72861015	      1.27217614	     -0.89639958	      1.98171261	      3.37532813	     -9.50586366	    -40.11280093	    -19.17227947	      9.01909617	     12.85119256	     24.79013456	      6.82683279	     13.43505315	    -13.93732903	     -5.79939337	    -16.86562312	      4.33418202	      2.53943868	      0.64596744	     -2.11725528
      2.13500000	     -8.31137914	     -2.25708508	      3.25752994	      0.73305951	      1.27282366	     -0.89718741	      3.00568764	      3.10457895	    -10.07320581	    -41.62748475	    -19.23729634	      8.23743576	     12.57159249	     24.38754403	      6.89655777	     13.71448924	    -13.82908853	     -5.62617696	    -16.67710411	      4.26206063	      2.31466198	      0.66397777	     -2.39038585
      2.14000000	     -8.36617598	     -2.36624421	      3.51337901	      0.73748323	      1.27339716	     -0.89795730	      4.10981076	      2.92449851	    -10.52363179	    -43.06047305	    -19.27058099	      7.30937442	     12.04165854	     24.07499811	      6.90462601	     13.95790082	    -13.75199442	     -5.32920396	    -16.53272445	      4.05685638	      2.16376154	      0.76522100	     -2.73789233
      2.14500000	     -8.38700943	     -2.46088618	      3.78451016	      0.74186801	      1.27396907	     -0.89874638	      5.16921782	      2.72234611	    -10.98118161	    -44.42866050	    -19.05346562	      6.42386885	     11.51811559	     23.71128504	      6.92874610	     14.22048859	    -13.64149585	     -5.11386465	    -16.37036145	      3.81097255	      1.97610299	      0.85234499	     -3.05076939
      2.15000000	     -8.40253426	     -2.55301561	      4.03902605	      0.74623773	      1.27452185	     -0.89951404	      6.22346395	      2.52019283	    -11.40209971	    -45.73240710	    -18.68907593	      5.54108888	     10.88721594	     23.34265959	      6.94829764	     14.46483089	    -13.53655357	     -4.89853487	    -16.21768289	      3.44206851	      1.78924440	      0.93510160	     -3.29739524
      2.15500000	     -8.38347033	     -2.64471829	      4.30638454	      0.75063722	      1.27512234	     -0.90028014	      7.20766422	      2.33838407	    -11.78270478	    -46.91099244	    -18.05746320	      4.66068454	     10.65003771	     22.90192606	      6.95890983	     14.72961346	    -13.35823683	     -4.78815015	    -16.09439502	      3.33112394	      1.56352311	      1.03455709	     -3.64498397
      2.16000000	     -8.46442740	     -2.76661260	      4.55159271	      0.75514578	      1.27561826	     -0.90104639	      8.29384238	      2.19761169	    -12.11660285	    -47.99750176	    -17.45928182	      3.59945024	     10.25817220	     22.56172406	      6.94105604	     14.98606311	    -13.17641245	     -4.60110650	    -16.05951868	      3.06328229	      1.47393599	      1.17415458	     -3.99212355
